<svg width="122" height="118" viewBox="0 0 122 118" fill="none" xmlns="http://www.w3.org/2000/svg">
<path fill-rule="evenodd" clip-rule="evenodd" d="M21.6342 82.3961C21.6342 82.3961 21.6342 82.3962 21.765 82.4696C21.8364 82.6015 21.8365 82.6015 21.8365 82.6015L21.8438 82.5975L21.8663 82.5854L21.9549 82.5381C22.0327 82.4966 22.1476 82.4359 22.2954 82.3587C22.5909 82.2043 23.0178 81.9844 23.5428 81.7224C24.593 81.1984 26.0353 80.5066 27.6042 79.8348C29.1736 79.1628 30.8667 78.512 32.4192 78.0692C33.9774 77.6247 35.3729 77.396 36.3566 77.5498L36.403 77.2534C35.3504 77.0889 33.9008 77.3346 32.3369 77.7807C30.7673 78.2284 29.0613 78.8845 27.4861 79.559C25.9103 80.2338 24.4625 80.9283 23.4089 81.454C22.882 81.7169 22.4534 81.9377 22.1565 82.0928C22.1497 82.0963 22.1429 82.0998 22.1363 82.1033C22.1813 82.0198 22.2321 81.9252 22.2878 81.8204C22.5321 81.3613 22.8734 80.7058 23.2618 79.9195C24.0383 78.3474 25.0044 76.2498 25.76 74.1524C26.5136 72.0602 27.0652 69.9486 26.9966 68.3559C26.9623 67.5585 26.7719 66.8709 26.3529 66.3831C25.9292 65.89 25.2919 65.6242 24.4167 65.6327L24.4196 65.9327C25.2293 65.9248 25.7727 66.1682 26.1253 66.5786C26.4826 66.9945 26.6641 67.6049 26.6969 68.3688C26.7627 69.8988 26.2298 71.963 25.4777 74.0507C24.7275 76.1333 23.7668 78.2196 22.9928 79.7866C22.6059 80.5698 22.2661 81.2226 22.023 81.6794C21.9015 81.9078 21.8041 82.0873 21.7372 82.2095C21.7038 82.2706 21.678 82.3174 21.6605 82.3488L21.6408 82.3844L21.6342 82.3961ZM21.765 82.4696L21.8365 82.6015L21.3809 82.848L21.6342 82.3961L21.765 82.4696Z" fill="white"/>
<path fill-rule="evenodd" clip-rule="evenodd" d="M60.0276 46.1121C47.1441 53.056 35.6462 62.813 28.6953 74.0642L28.9505 74.2218C35.8668 63.0266 47.3196 53.3022 60.1699 46.3762C73.0203 39.4503 87.2545 35.3302 99.7242 35.3302V35.0302C87.194 35.0302 72.9111 39.1683 60.0276 46.1121Z" fill="white"/>
</svg>
